<svg width="20" height="20" viewBox="0 0 20 20" fill="none" xmlns="http://www.w3.org/2000/svg">
<path d="M10 0C15.523 0 20 4.477 20 10C20 15.523 15.523 20 10 20C4.477 20 0 15.523 0 10C0 4.477 4.477 0 10 0ZM10 2C7.87827 2 5.84344 2.84285 4.34315 4.34315C2.84285 5.84344 2 7.87827 2 10C2 12.1217 2.84285 14.1566 4.34315 15.6569C5.84344 17.1571 7.87827 18 10 18C12.1217 18 14.1566 17.1571 15.6569 15.6569C17.1571 14.1566 18 12.1217 18 10C18 7.87827 17.1571 5.84344 15.6569 4.34315C14.1566 2.84285 12.1217 2 10 2ZM15 11C15 12.3261 14.4732 13.5979 13.5355 14.5355C12.5979 15.4732 11.3261 16 10 16C8.67392 16 7.40215 15.4732 6.46447 14.5355C5.52678 13.5979 5 12.3261 5 11H15Z" fill="#42427D"/>
</svg>
