<svg width="24" height="24" viewBox="0 0 24 24" fill="none" xmlns="http://www.w3.org/2000/svg">
<g clip-path="url(#clip0_50_136)">
<path d="M12.4556 16.8006L22.0586 19.6126V14.4389C22.3657 14.1832 22.6457 13.8729 22.8948 13.5116C23.6075 12.4775 24 11.1171 24 9.68115C24 8.24516 23.6075 6.8848 22.8948 5.85072C22.6457 5.48938 22.3657 5.17915 22.0586 4.92343V0.412369L5.58877 4.93197H0V14.911H4.91302C4.98807 16.4397 5.38832 20.5681 7.51757 22.9051L8.13948 23.5876L11.0459 20.0664L10.8447 19.6136C10.8414 19.6059 10.6906 19.2601 10.5232 18.6353C10.6087 18.5954 10.6965 18.5509 10.7858 18.5014C11.3152 18.2083 11.982 17.6889 12.4556 16.8006ZM6.49759 6.34364L20.4567 2.51299V4.1541V5.80939V13.5528V15.2081V17.4744L8.4702 13.9644V15.0335C8.4702 17.3239 8.93361 19.0083 9.19972 19.7867L8.13562 21.0759C6.52351 18.5198 6.49767 14.3733 6.49762 14.3277V6.34364H6.49759ZM22.3982 9.68113C22.3982 10.3924 22.2737 11.0672 22.0586 11.6521V7.71012C22.2737 8.29503 22.3982 8.96983 22.3982 9.68113ZM1.60185 6.53381H4.89577V13.3092H1.60185V6.53381ZM10.1986 16.9847C10.1626 16.7125 10.1323 16.4218 10.1103 16.1138L10.8636 16.3344C10.6605 16.6211 10.4262 16.8313 10.1986 16.9847Z" fill="#42427D"/>
</g>
<defs>
<clipPath id="clip0_50_136">
<rect width="24" height="24" fill="white"/>
</clipPath>
</defs>
</svg>
