<svg width="27" height="27" viewBox="0 0 27 27" fill="none" xmlns="http://www.w3.org/2000/svg">
<path d="M11.4939 3.44315V4.34374C11.4939 5.44993 12.3938 6.34989 13.5 6.34989C14.6062 6.34989 15.5061 5.44993 15.5061 4.34374V3.44315H19.5504L27 11.1565L22.0603 16.0962L20.0687 14.0125V23.5568H6.93128V14.0124L4.93971 16.0962L0 11.1564L7.44964 3.44315H11.4939ZM4.91059 13.5198L8.73248 9.52091V21.7556H18.2675V9.52091L22.0894 13.5198L24.4747 11.1345L18.7859 5.24434H17.1997C16.7941 6.91042 15.2892 8.15109 13.5 8.15109C11.7108 8.15109 10.2059 6.91045 9.80026 5.24434H8.21412L2.52531 11.1345L4.91059 13.5198Z" fill="#42427D"/>
</svg>
