<svg width="24" height="24" viewBox="0 0 24 24" fill="none" xmlns="http://www.w3.org/2000/svg">
<g clip-path="url(#clip0_50_137)">
<path d="M23.5596 8.5435C23.2853 8.23565 22.9104 8.03543 22.5021 7.97858V7.97773L16.1236 7.09662L13.5995 1.06532C13.231 0.182506 12.2165 -0.234369 11.3338 0.134194C10.9129 0.309913 10.5783 0.644478 10.4026 1.06532L7.87854 7.09662L1.50012 7.97773C0.549813 8.11001 -0.11334 8.9877 0.0189391 9.93801C0.0757879 10.3464 0.276014 10.7212 0.583862 10.9955L5.38955 15.2809L4.40212 22.0056C4.29516 22.6884 4.60878 23.3687 5.19751 23.7309C5.77795 24.1021 6.52457 24.0882 7.09079 23.6957L12.001 20.3565L16.9113 23.6991C17.7036 24.2369 18.7819 24.0305 19.3197 23.2382C19.564 22.8781 19.6641 22.4394 19.6 22.009L18.6126 15.2817L23.4183 10.9963C24.1346 10.358 24.1979 9.25984 23.5596 8.5435ZM17.1264 14.3133C16.9114 14.5053 16.8074 14.7926 16.8496 15.0778L17.8781 22.2773L12.4853 18.6107C12.1946 18.4132 11.8127 18.4132 11.5219 18.6107L6.09745 22.255L7.15251 15.0744C7.19349 14.7903 7.08954 14.5046 6.87565 14.3133L1.73314 9.67817L8.59669 8.73107C8.8972 8.68964 9.15337 8.49243 9.27033 8.21255L12.0113 1.71416C12.0144 1.71798 12.0167 1.72235 12.0182 1.72702L14.7308 8.20914C14.8478 8.48901 15.104 8.68623 15.4045 8.72766L22.2766 9.71674L17.1264 14.3133Z" fill="#42427D"/>
</g>
<defs>
<clipPath id="clip0_50_137">
<rect width="24" height="24" fill="white"/>
</clipPath>
</defs>
</svg>
