<svg width="24" height="24" viewBox="0 0 24 24" fill="none" xmlns="http://www.w3.org/2000/svg">
<path d="M22.3314 5.62161L16.7098 0H1.66864V24H22.3314V5.62161ZM17.2128 2.93176L19.3997 5.1186H17.2128V2.93176ZM20.614 22.2826H3.38603V1.71739H15.4954V6.83598H20.614V22.2826Z" fill="#42427D"/>
<path d="M19.1747 9.35454H10.8407V11.0719H19.1747V9.35454Z" fill="#42427D"/>
<path d="M6.35116 13.6472L5.67628 12.9724L4.46188 14.1867L6.35116 16.076L9.47208 12.9551L8.25771 11.7407L6.35116 13.6472Z" fill="#42427D"/>
<path d="M6.3512 17.9251L5.67631 17.2502L4.46194 18.4646L6.3512 20.3539L9.47212 17.233L8.25775 16.0186L6.3512 17.9251Z" fill="#42427D"/>
<path d="M6.3512 9.36945L5.67631 8.69454L4.46194 9.90891L6.3512 11.7982L9.47212 8.67729L8.25775 7.46292L6.3512 9.36945Z" fill="#42427D"/>
<path d="M19.1747 13.6352H10.8407V15.3525H19.1747V13.6352Z" fill="#42427D"/>
<path d="M19.1747 17.9158H10.8407V19.6331H19.1747V17.9158Z" fill="#42427D"/>
</svg>
