<svg width="18" height="18" viewBox="0 0 18 18" fill="none" xmlns="http://www.w3.org/2000/svg">
<path d="M16.5811 11.8862L14.9794 10.2573V6.24355C15.0008 4.75308 14.4882 3.30515 13.5363 2.1671C12.5844 1.02905 11.2576 0.277752 9.80082 0.0519242C8.95534 -0.0606886 8.09584 0.0103601 7.27967 0.26033C6.46349 0.510299 5.70941 0.933441 5.06773 1.50152C4.42606 2.0696 3.91155 2.76956 3.55853 3.55469C3.20551 4.33982 3.02211 5.19206 3.02055 6.05456V10.2573L1.41891 11.8862C1.21774 12.0931 1.08131 12.3553 1.02669 12.6402C0.972072 12.925 1.00168 13.2199 1.11182 13.4878C1.22196 13.7557 1.40775 13.9849 1.64595 14.1466C1.88415 14.3083 2.16419 14.3954 2.45108 14.3971H5.4408V14.703C5.48237 15.6167 5.88032 16.4764 6.54747 17.0938C7.21462 17.7112 8.09655 18.0359 9 17.9968C9.90345 18.0359 10.7854 17.7112 11.4525 17.0938C12.1197 16.4764 12.5176 15.6167 12.5592 14.703V14.3971H15.5489C15.8358 14.3954 16.1159 14.3083 16.3541 14.1466C16.5923 13.9849 16.778 13.7557 16.8882 13.4878C16.9983 13.2199 17.0279 12.925 16.9733 12.6402C16.9187 12.3553 16.7823 12.0931 16.5811 11.8862ZM10.7796 14.703C10.7303 15.1359 10.5177 15.5328 10.1862 15.8111C9.85465 16.0894 9.42976 16.2276 9 16.197C8.57024 16.2276 8.14535 16.0894 7.81383 15.8111C7.48232 15.5328 7.26975 15.1359 7.2204 14.703V14.3971H10.7796V14.703ZM3.22521 12.5972L4.27517 11.5352C4.44171 11.3678 4.57384 11.1687 4.66394 10.9493C4.75404 10.73 4.80034 10.4948 4.80015 10.2573V6.05456C4.80063 5.44746 4.92951 4.84749 5.17813 4.29491C5.42675 3.74233 5.78936 3.24993 6.24162 2.85076C6.68778 2.44189 7.21646 2.13597 7.79107 1.95417C8.36567 1.77236 8.97247 1.71902 9.56947 1.79782C10.5985 1.96681 11.5325 2.50609 12.1996 3.31637C12.8667 4.12665 13.2219 5.15339 13.1998 6.20755V10.2573C13.1985 10.4942 13.2434 10.729 13.3319 10.9483C13.4205 11.1676 13.551 11.367 13.7159 11.5352L14.7748 12.5972H3.22521Z" fill="#42427D"/>
</svg>
