<svg width="27" height="27" viewBox="0 0 27 27" fill="none" xmlns="http://www.w3.org/2000/svg">
<path d="M5 2V26H7.45572V25.1654C7.45572 24.7473 7.7959 24.4071 8.21403 24.4071C8.63215 24.4071 8.97234 24.7473 8.97234 25.1654V26H11.4796V25.1654C11.4796 24.7473 11.8197 24.4071 12.2378 24.4071C12.6559 24.4071 12.9961 24.7473 12.9961 25.1654V26H15.5034V25.1654C15.5034 24.7473 15.8435 24.4071 16.2616 24.4071C16.6797 24.4071 17.0199 24.7473 17.0199 25.1654V26H19.5272V25.1654C19.5272 24.7473 19.8673 24.4071 20.2854 24.4071C20.7036 24.4071 21.0437 24.7473 21.0437 25.1654V26H23.4995V2H21.0438V2.83461C21.0438 3.25273 20.7036 3.59289 20.2855 3.59289C19.8674 3.59289 19.5272 3.25273 19.5272 2.83461V2H17.0199V2.83461C17.0199 3.25273 16.6798 3.59289 16.2617 3.59289C15.8436 3.59289 15.5034 3.25273 15.5034 2.83461V2H12.9961V2.83461C12.9961 3.25273 12.656 3.59289 12.2379 3.59289C11.8198 3.59289 11.4796 3.25273 11.4796 2.83461V2H8.97234V2.83461C8.97234 3.25273 8.63215 3.59289 8.21403 3.59289C7.7959 3.59289 7.45572 3.25273 7.45572 2.83461V2H5ZM8.21403 5.2621C9.05028 5.2621 9.7892 4.83697 10.226 4.19155C10.6627 4.83697 11.4016 5.2621 12.2379 5.2621C13.0742 5.2621 13.8131 4.83707 14.2498 4.19155C14.6866 4.83707 15.4254 5.2621 16.2617 5.2621C17.0981 5.2621 17.837 4.83704 18.2737 4.19155C18.7104 4.83707 19.4492 5.2621 20.2856 5.2621C20.8719 5.2621 21.4104 5.05314 21.8304 4.70579V23.2942C21.4104 22.9469 20.8719 22.7379 20.2856 22.7379C19.4493 22.7379 18.7104 23.163 18.2737 23.8085C17.837 23.1629 17.0981 22.7379 16.2617 22.7379C15.4254 22.7379 14.6865 23.1629 14.2498 23.8085C13.8131 23.1629 13.0742 22.7379 12.2379 22.7379C11.4016 22.7379 10.6627 23.163 10.2259 23.8085C9.78917 23.163 9.05028 22.7379 8.214 22.7379C7.62765 22.7379 7.08918 22.9469 6.66919 23.2942V4.70579C7.08921 5.05314 7.62767 5.2621 8.21403 5.2621Z" fill="#42427D"/>
<path d="M19.1817 7.26691H9.54178V8.93612H19.1817V7.26691Z" fill="#42427D"/>
<path d="M19.1817 10.7336H9.54178V12.4028H19.1817V10.7336Z" fill="#42427D"/>
<path d="M19.1817 14.2002H9.54178V15.8694H19.1817V14.2002Z" fill="#42427D"/>
<path d="M19.1817 19.2079H13.0188V20.8771H19.1817V19.2079Z" fill="#42427D"/>
</svg>
