<svg width="27" height="27" viewBox="0 0 27 27" fill="none" xmlns="http://www.w3.org/2000/svg">
<g clip-path="url(#clip0_50_130)">
<path d="M26.7654 9.67653C26.972 9.16582 27.0371 8.57019 26.9805 8.0243C26.9136 7.3797 26.7253 6.753 26.3612 6.21069L24.766 7.14316L24.9908 7.53882C25.055 7.71285 25.1036 7.89105 25.1369 8.07354C25.1537 8.25997 25.1546 8.44649 25.1386 8.63312C25.1074 8.80502 25.0618 8.9729 25.0013 9.13677C24.9261 9.29358 24.838 9.44281 24.7378 9.58493C24.6658 9.67042 24.5891 9.75132 24.5087 9.82864C24.5001 9.81173 24.4918 9.79483 24.4831 9.77792C23.8705 8.585 22.9977 7.51695 21.8886 6.60354C19.645 4.75545 16.6729 3.73768 13.52 3.73768C12.6004 3.73768 11.6948 3.8253 10.8195 3.99857C10.1723 3.30838 9.3229 2.7932 8.2861 2.4631C7.40549 2.18275 6.40631 2.04063 5.31635 2.04063C4.34709 2.04063 3.65239 2.15717 3.6233 2.16212L2.55719 2.34388L4.20525 7.74263C3.77278 8.25146 3.39754 8.79598 3.08404 9.3697L0 10.2384V17.2272L3.08427 18.096C3.72615 19.2688 4.63217 20.3244 5.73809 21.1889L5.24004 24.9594H12.0224L12.8928 23.7142C13.1015 23.7233 13.3111 23.7279 13.5201 23.7279C14.4142 23.7279 15.3013 23.6452 16.166 23.4816L17.1364 24.9594H23.9365L23.2224 19.5568C23.8782 18.791 24.3989 17.9549 24.7732 17.0659C25.2229 15.9975 25.451 14.8761 25.451 13.7328C25.451 13.0173 25.3624 12.3134 25.187 11.6264C25.4108 11.4852 25.6214 11.3218 25.8193 11.1339C26.2507 10.7241 26.5445 10.2224 26.7654 9.67653ZM21.5266 18.5979L21.2191 18.9265L21.7649 23.056H18.1636L17.0319 21.3325L16.3811 21.4891C15.4562 21.7117 14.4936 21.8245 13.52 21.8245C13.178 21.8245 12.8341 21.8103 12.4976 21.7824L11.9523 21.7372L11.0305 23.056H7.41154L7.77447 20.3084L7.29996 19.9771C6.11714 19.1513 5.18184 18.0786 4.59516 16.8749L4.40828 16.4914L1.90352 15.7858V11.6798L4.40828 10.9743L4.59516 10.5908C4.93914 9.88502 5.39909 9.22679 5.96223 8.63443L6.34486 8.23195L5.03709 3.94791C5.12647 3.9455 5.21971 3.94413 5.31635 3.94413C6.19754 3.94413 7.02479 4.05921 7.70866 4.27691C8.58391 4.55555 9.24908 5.00403 9.68569 5.60991L10.0614 6.13127L10.6854 5.97759C11.5919 5.75435 12.5456 5.64115 13.52 5.64115C19.0492 5.64115 23.5475 9.27102 23.5475 13.7328C23.5475 15.5025 22.8487 17.1847 21.5266 18.5979Z" fill="#42427D"/>
<path d="M7.91994 11.6756C8.45422 11.6756 8.88735 11.2424 8.88735 10.7082C8.88735 10.1739 8.45422 9.74075 7.91994 9.74075C7.38565 9.74075 6.95253 10.1739 6.95253 10.7082C6.95253 11.2424 7.38565 11.6756 7.91994 11.6756Z" fill="#42427D"/>
<path d="M12.1872 6.84747L12.6063 8.7043C12.6129 8.70279 13.2986 8.5551 14.2442 8.59502C15.1154 8.63177 16.3819 8.84105 17.4675 9.62925L18.5858 8.08891C15.7962 6.06347 12.3333 6.81449 12.1872 6.84747Z" fill="#42427D"/>
</g>
<defs>
<clipPath id="clip0_50_130">
<rect width="27" height="27" fill="white"/>
</clipPath>
</defs>
</svg>
